<svg width="35" height="34" viewBox="0 0 35 34" fill="none" xmlns="http://www.w3.org/2000/svg">
<path d="M18.6243 22.3751C18.3188 22.6806 17.9366 22.8262 17.4777 22.8117C17.0199 22.7984 16.6382 22.639 16.3327 22.3334C16.0271 22.0279 15.8743 21.639 15.8743 21.1667C15.8743 20.6945 16.0271 20.3056 16.3327 20.0001L17.8327 18.5001H12.4577C11.9855 18.5001 11.5966 18.3401 11.291 18.0201C10.9855 17.7012 10.8327 17.3056 10.8327 16.8334C10.8327 16.3612 10.9921 15.9651 11.311 15.6451C11.631 15.3262 12.0271 15.1667 12.4993 15.1667H17.8327L16.291 13.6251C15.9855 13.3195 15.8393 12.9373 15.8527 12.4784C15.8671 12.0206 16.0271 11.639 16.3327 11.3334C16.6382 11.0279 17.0271 10.8751 17.4993 10.8751C17.9716 10.8751 18.3605 11.0279 18.666 11.3334L22.9993 15.6667C23.3049 15.9723 23.4577 16.3612 23.4577 16.8334C23.4577 17.3056 23.3049 17.6945 22.9993 18.0001L18.6243 22.3751ZM17.4993 33.5001C19.8049 33.5001 21.9716 33.0623 23.9993 32.1867C26.0271 31.3123 27.791 30.1251 29.291 28.6251C30.791 27.1251 31.9782 25.3612 32.8527 23.3334C33.7282 21.3056 34.166 19.139 34.166 16.8334C34.166 14.5279 33.7282 12.3612 32.8527 10.3334C31.9782 8.30564 30.791 6.54175 29.291 5.04175C27.791 3.54175 26.0271 2.35397 23.9993 1.47841C21.9716 0.60397 19.8049 0.166748 17.4993 0.166748C15.1938 0.166748 13.0271 0.60397 10.9993 1.47841C8.97157 2.35397 7.20768 3.54175 5.70768 5.04175C4.20768 6.54175 3.02046 8.30564 2.14602 10.3334C1.27046 12.3612 0.832684 14.5279 0.832684 16.8334C0.832684 19.139 1.27046 21.3056 2.14602 23.3334C3.02046 25.3612 4.20768 27.1251 5.70768 28.6251C7.20768 30.1251 8.97157 31.3123 10.9993 32.1867C13.0271 33.0623 15.1938 33.5001 17.4993 33.5001Z" fill="#333366"/>
</svg>
